<mxfile host="app.diagrams.net" modified="2022-05-03T07:28:03.389Z" agent="5.0 (Windows NT 10.0; Win64; x64) AppleWebKit/537.36 (KHTML, like Gecko) Chrome/100.0.4896.127 Safari/537.36" etag="v8R2oMBqclCuE2syhVrv" version="17.5.0" type="github">
  <diagram id="C5RBs43oDa-KdzZeNtuy" name="Page-1">
    <mxGraphModel dx="745" dy="446" grid="1" gridSize="10" guides="1" tooltips="1" connect="1" arrows="1" fold="1" page="1" pageScale="1" pageWidth="827" pageHeight="1169" background="#F1FAEE" math="0" shadow="0">
      <root>
        <mxCell id="WIyWlLk6GJQsqaUBKTNV-0" />
        <mxCell id="WIyWlLk6GJQsqaUBKTNV-1" parent="WIyWlLk6GJQsqaUBKTNV-0" />
        <mxCell id="zkfFHV4jXpPFQw0GAbJ--0" value="TileObj" style="swimlane;fontStyle=1;align=center;verticalAlign=top;childLayout=stackLayout;horizontal=1;startSize=26;horizontalStack=0;resizeParent=1;resizeLast=0;collapsible=1;marginBottom=0;rounded=0;shadow=0;strokeWidth=1;fillColor=#A8DADC;strokeColor=#457B9D;fontColor=#1D3557;" parent="WIyWlLk6GJQsqaUBKTNV-1" vertex="1">
          <mxGeometry x="320" y="10" width="160" height="242" as="geometry">
            <mxRectangle x="230" y="140" width="160" height="26" as="alternateBounds" />
          </mxGeometry>
        </mxCell>
        <mxCell id="zkfFHV4jXpPFQw0GAbJ--1" value="# x: int" style="text;align=left;verticalAlign=top;spacingLeft=4;spacingRight=4;overflow=hidden;rotatable=0;points=[[0,0.5],[1,0.5]];portConstraint=eastwest;fontColor=#1D3557;" parent="zkfFHV4jXpPFQw0GAbJ--0" vertex="1">
          <mxGeometry y="26" width="160" height="26" as="geometry" />
        </mxCell>
        <mxCell id="zkfFHV4jXpPFQw0GAbJ--2" value="# y : int" style="text;align=left;verticalAlign=top;spacingLeft=4;spacingRight=4;overflow=hidden;rotatable=0;points=[[0,0.5],[1,0.5]];portConstraint=eastwest;rounded=0;shadow=0;html=0;fontColor=#1D3557;" parent="zkfFHV4jXpPFQw0GAbJ--0" vertex="1">
          <mxGeometry y="52" width="160" height="26" as="geometry" />
        </mxCell>
        <mxCell id="zkfFHV4jXpPFQw0GAbJ--3" value="# sprite: PImage" style="text;align=left;verticalAlign=top;spacingLeft=4;spacingRight=4;overflow=hidden;rotatable=0;points=[[0,0.5],[1,0.5]];portConstraint=eastwest;rounded=0;shadow=0;html=0;fontColor=#1D3557;" parent="zkfFHV4jXpPFQw0GAbJ--0" vertex="1">
          <mxGeometry y="78" width="160" height="26" as="geometry" />
        </mxCell>
        <mxCell id="zkfFHV4jXpPFQw0GAbJ--4" value="" style="line;html=1;strokeWidth=1;align=left;verticalAlign=middle;spacingTop=-1;spacingLeft=3;spacingRight=3;rotatable=0;labelPosition=right;points=[];portConstraint=eastwest;labelBackgroundColor=#F1FAEE;fillColor=#A8DADC;strokeColor=#457B9D;fontColor=#1D3557;" parent="zkfFHV4jXpPFQw0GAbJ--0" vertex="1">
          <mxGeometry y="104" width="160" height="8" as="geometry" />
        </mxCell>
        <mxCell id="qzTbD7GOH1-h75xhZdL7-9" value="+ TileObj(int, int, PImage)" style="text;align=left;verticalAlign=top;spacingLeft=4;spacingRight=4;overflow=hidden;rotatable=0;points=[[0,0.5],[1,0.5]];portConstraint=eastwest;rounded=0;shadow=0;html=0;fontColor=#1D3557;" vertex="1" parent="zkfFHV4jXpPFQw0GAbJ--0">
          <mxGeometry y="112" width="160" height="26" as="geometry" />
        </mxCell>
        <mxCell id="qzTbD7GOH1-h75xhZdL7-0" value="+ move(int, int): void" style="text;align=left;verticalAlign=top;spacingLeft=4;spacingRight=4;overflow=hidden;rotatable=0;points=[[0,0.5],[1,0.5]];portConstraint=eastwest;rounded=0;shadow=0;html=0;fontColor=#1D3557;" vertex="1" parent="zkfFHV4jXpPFQw0GAbJ--0">
          <mxGeometry y="138" width="160" height="26" as="geometry" />
        </mxCell>
        <mxCell id="qzTbD7GOH1-h75xhZdL7-1" value="+ getSprite(): PImage" style="text;align=left;verticalAlign=top;spacingLeft=4;spacingRight=4;overflow=hidden;rotatable=0;points=[[0,0.5],[1,0.5]];portConstraint=eastwest;rounded=0;shadow=0;html=0;fontColor=#1D3557;" vertex="1" parent="zkfFHV4jXpPFQw0GAbJ--0">
          <mxGeometry y="164" width="160" height="26" as="geometry" />
        </mxCell>
        <mxCell id="qzTbD7GOH1-h75xhZdL7-2" value="+ getX(): int" style="text;align=left;verticalAlign=top;spacingLeft=4;spacingRight=4;overflow=hidden;rotatable=0;points=[[0,0.5],[1,0.5]];portConstraint=eastwest;rounded=0;shadow=0;html=0;fontColor=#1D3557;" vertex="1" parent="zkfFHV4jXpPFQw0GAbJ--0">
          <mxGeometry y="190" width="160" height="26" as="geometry" />
        </mxCell>
        <mxCell id="qzTbD7GOH1-h75xhZdL7-3" value="+ getY(): int" style="text;align=left;verticalAlign=top;spacingLeft=4;spacingRight=4;overflow=hidden;rotatable=0;points=[[0,0.5],[1,0.5]];portConstraint=eastwest;rounded=0;shadow=0;html=0;fontColor=#1D3557;" vertex="1" parent="zkfFHV4jXpPFQw0GAbJ--0">
          <mxGeometry y="216" width="160" height="26" as="geometry" />
        </mxCell>
        <mxCell id="zkfFHV4jXpPFQw0GAbJ--6" value="TileMover" style="swimlane;fontStyle=1;align=center;verticalAlign=top;childLayout=stackLayout;horizontal=1;startSize=26;horizontalStack=0;resizeParent=1;resizeLast=0;collapsible=1;marginBottom=0;rounded=0;shadow=0;strokeWidth=1;fillColor=#A8DADC;strokeColor=#457B9D;fontColor=#1D3557;" parent="WIyWlLk6GJQsqaUBKTNV-1" vertex="1">
          <mxGeometry x="130" y="210" width="170" height="242" as="geometry">
            <mxRectangle x="130" y="380" width="160" height="26" as="alternateBounds" />
          </mxGeometry>
        </mxCell>
        <mxCell id="zkfFHV4jXpPFQw0GAbJ--7" value="# onTile : Tile" style="text;align=left;verticalAlign=top;spacingLeft=4;spacingRight=4;overflow=hidden;rotatable=0;points=[[0,0.5],[1,0.5]];portConstraint=eastwest;fontColor=#1D3557;" parent="zkfFHV4jXpPFQw0GAbJ--6" vertex="1">
          <mxGeometry y="26" width="170" height="26" as="geometry" />
        </mxCell>
        <mxCell id="zkfFHV4jXpPFQw0GAbJ--8" value="# tileIdx : int[]" style="text;align=left;verticalAlign=top;spacingLeft=4;spacingRight=4;overflow=hidden;rotatable=0;points=[[0,0.5],[1,0.5]];portConstraint=eastwest;rounded=0;shadow=0;html=0;fontColor=#1D3557;" parent="zkfFHV4jXpPFQw0GAbJ--6" vertex="1">
          <mxGeometry y="52" width="170" height="26" as="geometry" />
        </mxCell>
        <mxCell id="zkfFHV4jXpPFQw0GAbJ--9" value="" style="line;html=1;strokeWidth=1;align=left;verticalAlign=middle;spacingTop=-1;spacingLeft=3;spacingRight=3;rotatable=0;labelPosition=right;points=[];portConstraint=eastwest;labelBackgroundColor=#F1FAEE;fillColor=#A8DADC;strokeColor=#457B9D;fontColor=#1D3557;" parent="zkfFHV4jXpPFQw0GAbJ--6" vertex="1">
          <mxGeometry y="78" width="170" height="8" as="geometry" />
        </mxCell>
        <mxCell id="zkfFHV4jXpPFQw0GAbJ--10" value="+ TileMover(int, int, PImage)" style="text;align=left;verticalAlign=top;spacingLeft=4;spacingRight=4;overflow=hidden;rotatable=0;points=[[0,0.5],[1,0.5]];portConstraint=eastwest;fontStyle=0;fontColor=#1D3557;" parent="zkfFHV4jXpPFQw0GAbJ--6" vertex="1">
          <mxGeometry y="86" width="170" height="26" as="geometry" />
        </mxCell>
        <mxCell id="qzTbD7GOH1-h75xhZdL7-11" value="+ onPixel(): boolean&#xa;" style="text;align=left;verticalAlign=top;spacingLeft=4;spacingRight=4;overflow=hidden;rotatable=0;points=[[0,0.5],[1,0.5]];portConstraint=eastwest;fontColor=#1D3557;" vertex="1" parent="zkfFHV4jXpPFQw0GAbJ--6">
          <mxGeometry y="112" width="170" height="26" as="geometry" />
        </mxCell>
        <mxCell id="qzTbD7GOH1-h75xhZdL7-13" value="+ onWhichTile() : void" style="text;align=left;verticalAlign=top;spacingLeft=4;spacingRight=4;overflow=hidden;rotatable=0;points=[[0,0.5],[1,0.5]];portConstraint=eastwest;fontColor=#1D3557;" vertex="1" parent="zkfFHV4jXpPFQw0GAbJ--6">
          <mxGeometry y="138" width="170" height="26" as="geometry" />
        </mxCell>
        <mxCell id="qzTbD7GOH1-h75xhZdL7-12" value="+ onWhichTile(int, int): void" style="text;align=left;verticalAlign=top;spacingLeft=4;spacingRight=4;overflow=hidden;rotatable=0;points=[[0,0.5],[1,0.5]];portConstraint=eastwest;fontColor=#1D3557;" vertex="1" parent="zkfFHV4jXpPFQw0GAbJ--6">
          <mxGeometry y="164" width="170" height="26" as="geometry" />
        </mxCell>
        <mxCell id="zkfFHV4jXpPFQw0GAbJ--11" value="+ isSafeTile(Tile): boolean " style="text;align=left;verticalAlign=top;spacingLeft=4;spacingRight=4;overflow=hidden;rotatable=0;points=[[0,0.5],[1,0.5]];portConstraint=eastwest;fontColor=#1D3557;" parent="zkfFHV4jXpPFQw0GAbJ--6" vertex="1">
          <mxGeometry y="190" width="170" height="26" as="geometry" />
        </mxCell>
        <mxCell id="qzTbD7GOH1-h75xhZdL7-14" value="+ getOnTile() : Tile " style="text;align=left;verticalAlign=top;spacingLeft=4;spacingRight=4;overflow=hidden;rotatable=0;points=[[0,0.5],[1,0.5]];portConstraint=eastwest;fontColor=#1D3557;" vertex="1" parent="zkfFHV4jXpPFQw0GAbJ--6">
          <mxGeometry y="216" width="170" height="26" as="geometry" />
        </mxCell>
        <mxCell id="zkfFHV4jXpPFQw0GAbJ--13" value="Tile" style="swimlane;fontStyle=1;align=center;verticalAlign=top;childLayout=stackLayout;horizontal=1;startSize=26;horizontalStack=0;resizeParent=1;resizeLast=0;collapsible=1;marginBottom=0;rounded=0;shadow=0;strokeWidth=1;fillColor=#A8DADC;strokeColor=#457B9D;fontColor=#1D3557;" parent="WIyWlLk6GJQsqaUBKTNV-1" vertex="1">
          <mxGeometry x="560" y="244" width="160" height="70" as="geometry">
            <mxRectangle x="340" y="380" width="170" height="26" as="alternateBounds" />
          </mxGeometry>
        </mxCell>
        <mxCell id="zkfFHV4jXpPFQw0GAbJ--14" value="Salary" style="text;align=left;verticalAlign=top;spacingLeft=4;spacingRight=4;overflow=hidden;rotatable=0;points=[[0,0.5],[1,0.5]];portConstraint=eastwest;fontColor=#1D3557;" parent="zkfFHV4jXpPFQw0GAbJ--13" vertex="1">
          <mxGeometry y="26" width="160" height="26" as="geometry" />
        </mxCell>
        <mxCell id="zkfFHV4jXpPFQw0GAbJ--15" value="" style="line;html=1;strokeWidth=1;align=left;verticalAlign=middle;spacingTop=-1;spacingLeft=3;spacingRight=3;rotatable=0;labelPosition=right;points=[];portConstraint=eastwest;labelBackgroundColor=#F1FAEE;fillColor=#A8DADC;strokeColor=#457B9D;fontColor=#1D3557;" parent="zkfFHV4jXpPFQw0GAbJ--13" vertex="1">
          <mxGeometry y="52" width="160" height="8" as="geometry" />
        </mxCell>
        <mxCell id="qzTbD7GOH1-h75xhZdL7-81" style="edgeStyle=orthogonalEdgeStyle;curved=0;rounded=1;sketch=0;orthogonalLoop=1;jettySize=auto;html=1;fontColor=#1D3557;strokeColor=#457B9D;fillColor=#A8DADC;entryX=0;entryY=0.5;entryDx=0;entryDy=0;" edge="1" parent="WIyWlLk6GJQsqaUBKTNV-1" source="qzTbD7GOH1-h75xhZdL7-15" target="qzTbD7GOH1-h75xhZdL7-13">
          <mxGeometry relative="1" as="geometry">
            <mxPoint x="115" y="360" as="targetPoint" />
            <Array as="points">
              <mxPoint x="90" y="361" />
            </Array>
          </mxGeometry>
        </mxCell>
        <mxCell id="qzTbD7GOH1-h75xhZdL7-15" value="Player" style="swimlane;fontStyle=1;align=center;verticalAlign=top;childLayout=stackLayout;horizontal=1;startSize=26;horizontalStack=0;resizeParent=1;resizeLast=0;collapsible=1;marginBottom=0;rounded=0;shadow=0;strokeWidth=1;fillColor=#A8DADC;strokeColor=#457B9D;fontColor=#1D3557;" vertex="1" parent="WIyWlLk6GJQsqaUBKTNV-1">
          <mxGeometry x="10" y="480" width="210" height="1020" as="geometry">
            <mxRectangle x="130" y="380" width="160" height="26" as="alternateBounds" />
          </mxGeometry>
        </mxCell>
        <mxCell id="qzTbD7GOH1-h75xhZdL7-16" value="- speed : int" style="text;align=left;verticalAlign=top;spacingLeft=4;spacingRight=4;overflow=hidden;rotatable=0;points=[[0,0.5],[1,0.5]];portConstraint=eastwest;fontColor=#1D3557;" vertex="1" parent="qzTbD7GOH1-h75xhZdL7-15">
          <mxGeometry y="26" width="210" height="26" as="geometry" />
        </mxCell>
        <mxCell id="qzTbD7GOH1-h75xhZdL7-17" value="- life : int" style="text;align=left;verticalAlign=top;spacingLeft=4;spacingRight=4;overflow=hidden;rotatable=0;points=[[0,0.5],[1,0.5]];portConstraint=eastwest;rounded=0;shadow=0;html=0;fontColor=#1D3557;" vertex="1" parent="qzTbD7GOH1-h75xhZdL7-15">
          <mxGeometry y="52" width="210" height="26" as="geometry" />
        </mxCell>
        <mxCell id="qzTbD7GOH1-h75xhZdL7-31" value="- keyPress: int" style="text;align=left;verticalAlign=top;spacingLeft=4;spacingRight=4;overflow=hidden;rotatable=0;points=[[0,0.5],[1,0.5]];portConstraint=eastwest;rounded=0;shadow=0;html=0;fontColor=#1D3557;" vertex="1" parent="qzTbD7GOH1-h75xhZdL7-15">
          <mxGeometry y="78" width="210" height="26" as="geometry" />
        </mxCell>
        <mxCell id="qzTbD7GOH1-h75xhZdL7-35" value="- tempDirection : int" style="text;align=left;verticalAlign=top;spacingLeft=4;spacingRight=4;overflow=hidden;rotatable=0;points=[[0,0.5],[1,0.5]];portConstraint=eastwest;rounded=0;shadow=0;html=0;fontColor=#1D3557;" vertex="1" parent="qzTbD7GOH1-h75xhZdL7-15">
          <mxGeometry y="104" width="210" height="26" as="geometry" />
        </mxCell>
        <mxCell id="qzTbD7GOH1-h75xhZdL7-39" value="- path: List&lt;Tile&gt;" style="text;align=left;verticalAlign=top;spacingLeft=4;spacingRight=4;overflow=hidden;rotatable=0;points=[[0,0.5],[1,0.5]];portConstraint=eastwest;rounded=0;shadow=0;html=0;fontColor=#1D3557;" vertex="1" parent="qzTbD7GOH1-h75xhZdL7-15">
          <mxGeometry y="130" width="210" height="26" as="geometry" />
        </mxCell>
        <mxCell id="qzTbD7GOH1-h75xhZdL7-41" value="- pathIdx: List&lt;Integer[]&gt;" style="text;align=left;verticalAlign=top;spacingLeft=4;spacingRight=4;overflow=hidden;rotatable=0;points=[[0,0.5],[1,0.5]];portConstraint=eastwest;rounded=0;shadow=0;html=0;fontColor=#1D3557;" vertex="1" parent="qzTbD7GOH1-h75xhZdL7-15">
          <mxGeometry y="156" width="210" height="24" as="geometry" />
        </mxCell>
        <mxCell id="qzTbD7GOH1-h75xhZdL7-40" value="- checkPath : boolean" style="text;align=left;verticalAlign=top;spacingLeft=4;spacingRight=4;overflow=hidden;rotatable=0;points=[[0,0.5],[1,0.5]];portConstraint=eastwest;rounded=0;shadow=0;html=0;fontColor=#1D3557;" vertex="1" parent="qzTbD7GOH1-h75xhZdL7-15">
          <mxGeometry y="180" width="210" height="26" as="geometry" />
        </mxCell>
        <mxCell id="qzTbD7GOH1-h75xhZdL7-38" value="+ L: int = 37" style="text;align=left;verticalAlign=top;spacingLeft=4;spacingRight=4;overflow=hidden;rotatable=0;points=[[0,0.5],[1,0.5]];portConstraint=eastwest;rounded=0;shadow=0;html=0;fontColor=#1D3557;fontStyle=4" vertex="1" parent="qzTbD7GOH1-h75xhZdL7-15">
          <mxGeometry y="206" width="210" height="26" as="geometry" />
        </mxCell>
        <mxCell id="qzTbD7GOH1-h75xhZdL7-37" value="+ R: int = 39" style="text;align=left;verticalAlign=top;spacingLeft=4;spacingRight=4;overflow=hidden;rotatable=0;points=[[0,0.5],[1,0.5]];portConstraint=eastwest;rounded=0;shadow=0;html=0;fontColor=#1D3557;fontStyle=4" vertex="1" parent="qzTbD7GOH1-h75xhZdL7-15">
          <mxGeometry y="232" width="210" height="26" as="geometry" />
        </mxCell>
        <mxCell id="qzTbD7GOH1-h75xhZdL7-36" value="+ U: int = 38" style="text;align=left;verticalAlign=top;spacingLeft=4;spacingRight=4;overflow=hidden;rotatable=0;points=[[0,0.5],[1,0.5]];portConstraint=eastwest;rounded=0;shadow=0;html=0;fontColor=#1D3557;fontStyle=4" vertex="1" parent="qzTbD7GOH1-h75xhZdL7-15">
          <mxGeometry y="258" width="210" height="26" as="geometry" />
        </mxCell>
        <mxCell id="qzTbD7GOH1-h75xhZdL7-34" value="+ D: int = 40" style="text;align=left;verticalAlign=top;spacingLeft=4;spacingRight=4;overflow=hidden;rotatable=0;points=[[0,0.5],[1,0.5]];portConstraint=eastwest;rounded=0;shadow=0;html=0;fontColor=#1D3557;fontStyle=4" vertex="1" parent="qzTbD7GOH1-h75xhZdL7-15">
          <mxGeometry y="284" width="210" height="26" as="geometry" />
        </mxCell>
        <mxCell id="qzTbD7GOH1-h75xhZdL7-33" value="+ NOTMV : int = -1" style="text;align=left;verticalAlign=top;spacingLeft=4;spacingRight=4;overflow=hidden;rotatable=0;points=[[0,0.5],[1,0.5]];portConstraint=eastwest;rounded=0;shadow=0;html=0;fontColor=#1D3557;fontStyle=4" vertex="1" parent="qzTbD7GOH1-h75xhZdL7-15">
          <mxGeometry y="310" width="210" height="26" as="geometry" />
        </mxCell>
        <mxCell id="qzTbD7GOH1-h75xhZdL7-18" value="" style="line;html=1;strokeWidth=1;align=left;verticalAlign=middle;spacingTop=-1;spacingLeft=3;spacingRight=3;rotatable=0;labelPosition=right;points=[];portConstraint=eastwest;labelBackgroundColor=#F1FAEE;fillColor=#A8DADC;strokeColor=#457B9D;fontColor=#1D3557;" vertex="1" parent="qzTbD7GOH1-h75xhZdL7-15">
          <mxGeometry y="336" width="210" height="8" as="geometry" />
        </mxCell>
        <mxCell id="qzTbD7GOH1-h75xhZdL7-19" value="+ Player(PImage)" style="text;align=left;verticalAlign=top;spacingLeft=4;spacingRight=4;overflow=hidden;rotatable=0;points=[[0,0.5],[1,0.5]];portConstraint=eastwest;fontStyle=0;fontColor=#1D3557;" vertex="1" parent="qzTbD7GOH1-h75xhZdL7-15">
          <mxGeometry y="344" width="210" height="26" as="geometry" />
        </mxCell>
        <mxCell id="qzTbD7GOH1-h75xhZdL7-20" value="+ onPixel() : boolean" style="text;align=left;verticalAlign=top;spacingLeft=4;spacingRight=4;overflow=hidden;rotatable=0;points=[[0,0.5],[1,0.5]];portConstraint=eastwest;fontColor=#1D3557;" vertex="1" parent="qzTbD7GOH1-h75xhZdL7-15">
          <mxGeometry y="370" width="210" height="26" as="geometry" />
        </mxCell>
        <mxCell id="qzTbD7GOH1-h75xhZdL7-21" value="+ movingByDirection(int): void " style="text;align=left;verticalAlign=top;spacingLeft=4;spacingRight=4;overflow=hidden;rotatable=0;points=[[0,0.5],[1,0.5]];portConstraint=eastwest;fontColor=#1D3557;" vertex="1" parent="qzTbD7GOH1-h75xhZdL7-15">
          <mxGeometry y="396" width="210" height="26" as="geometry" />
        </mxCell>
        <mxCell id="qzTbD7GOH1-h75xhZdL7-22" value="+ moveByPixel(): void" style="text;align=left;verticalAlign=top;spacingLeft=4;spacingRight=4;overflow=hidden;rotatable=0;points=[[0,0.5],[1,0.5]];portConstraint=eastwest;fontColor=#1D3557;" vertex="1" parent="qzTbD7GOH1-h75xhZdL7-15">
          <mxGeometry y="422" width="210" height="26" as="geometry" />
        </mxCell>
        <mxCell id="qzTbD7GOH1-h75xhZdL7-23" value="+ restrictedArea(): boolean " style="text;align=left;verticalAlign=top;spacingLeft=4;spacingRight=4;overflow=hidden;rotatable=0;points=[[0,0.5],[1,0.5]];portConstraint=eastwest;fontColor=#1D3557;" vertex="1" parent="qzTbD7GOH1-h75xhZdL7-15">
          <mxGeometry y="448" width="210" height="26" as="geometry" />
        </mxCell>
        <mxCell id="qzTbD7GOH1-h75xhZdL7-24" value="+ keepMoving(): boolean" style="text;align=left;verticalAlign=top;spacingLeft=4;spacingRight=4;overflow=hidden;rotatable=0;points=[[0,0.5],[1,0.5]];portConstraint=eastwest;fontColor=#1D3557;" vertex="1" parent="qzTbD7GOH1-h75xhZdL7-15">
          <mxGeometry y="474" width="210" height="26" as="geometry" />
        </mxCell>
        <mxCell id="qzTbD7GOH1-h75xhZdL7-42" value="+ playerMove(): void" style="text;align=left;verticalAlign=top;spacingLeft=4;spacingRight=4;overflow=hidden;rotatable=0;points=[[0,0.5],[1,0.5]];portConstraint=eastwest;fontColor=#1D3557;" vertex="1" parent="qzTbD7GOH1-h75xhZdL7-15">
          <mxGeometry y="500" width="210" height="26" as="geometry" />
        </mxCell>
        <mxCell id="qzTbD7GOH1-h75xhZdL7-43" value="+ setPath(): void" style="text;align=left;verticalAlign=top;spacingLeft=4;spacingRight=4;overflow=hidden;rotatable=0;points=[[0,0.5],[1,0.5]];portConstraint=eastwest;fontColor=#1D3557;" vertex="1" parent="qzTbD7GOH1-h75xhZdL7-15">
          <mxGeometry y="526" width="210" height="26" as="geometry" />
        </mxCell>
        <mxCell id="qzTbD7GOH1-h75xhZdL7-44" value="+ wentThroughSafePath(): boolean" style="text;align=left;verticalAlign=top;spacingLeft=4;spacingRight=4;overflow=hidden;rotatable=0;points=[[0,0.5],[1,0.5]];portConstraint=eastwest;fontColor=#1D3557;" vertex="1" parent="qzTbD7GOH1-h75xhZdL7-15">
          <mxGeometry y="552" width="210" height="26" as="geometry" />
        </mxCell>
        <mxCell id="qzTbD7GOH1-h75xhZdL7-68" value="+ setInputPress(int): void" style="text;align=left;verticalAlign=top;spacingLeft=4;spacingRight=4;overflow=hidden;rotatable=0;points=[[0,0.5],[1,0.5]];portConstraint=eastwest;fontColor=#1D3557;" vertex="1" parent="qzTbD7GOH1-h75xhZdL7-15">
          <mxGeometry y="578" width="210" height="26" as="geometry" />
        </mxCell>
        <mxCell id="qzTbD7GOH1-h75xhZdL7-70" value="+ died(): void" style="text;align=left;verticalAlign=top;spacingLeft=4;spacingRight=4;overflow=hidden;rotatable=0;points=[[0,0.5],[1,0.5]];portConstraint=eastwest;fontColor=#1D3557;" vertex="1" parent="qzTbD7GOH1-h75xhZdL7-15">
          <mxGeometry y="604" width="210" height="26" as="geometry" />
        </mxCell>
        <mxCell id="qzTbD7GOH1-h75xhZdL7-72" value="+ stepPathAgain(): boolean" style="text;align=left;verticalAlign=top;spacingLeft=4;spacingRight=4;overflow=hidden;rotatable=0;points=[[0,0.5],[1,0.5]];portConstraint=eastwest;fontColor=#1D3557;" vertex="1" parent="qzTbD7GOH1-h75xhZdL7-15">
          <mxGeometry y="630" width="210" height="26" as="geometry" />
        </mxCell>
        <mxCell id="qzTbD7GOH1-h75xhZdL7-71" value="+ getTileIdx(): int[]" style="text;align=left;verticalAlign=top;spacingLeft=4;spacingRight=4;overflow=hidden;rotatable=0;points=[[0,0.5],[1,0.5]];portConstraint=eastwest;fontColor=#1D3557;" vertex="1" parent="qzTbD7GOH1-h75xhZdL7-15">
          <mxGeometry y="656" width="210" height="26" as="geometry" />
        </mxCell>
        <mxCell id="qzTbD7GOH1-h75xhZdL7-73" value="+ getCheckPath(): boolean" style="text;align=left;verticalAlign=top;spacingLeft=4;spacingRight=4;overflow=hidden;rotatable=0;points=[[0,0.5],[1,0.5]];portConstraint=eastwest;fontColor=#1D3557;" vertex="1" parent="qzTbD7GOH1-h75xhZdL7-15">
          <mxGeometry y="682" width="210" height="26" as="geometry" />
        </mxCell>
        <mxCell id="qzTbD7GOH1-h75xhZdL7-74" value="+ getPlayerPathIdx(): List&lt;Integer[]&gt;" style="text;align=left;verticalAlign=top;spacingLeft=4;spacingRight=4;overflow=hidden;rotatable=0;points=[[0,0.5],[1,0.5]];portConstraint=eastwest;fontColor=#1D3557;" vertex="1" parent="qzTbD7GOH1-h75xhZdL7-15">
          <mxGeometry y="708" width="210" height="26" as="geometry" />
        </mxCell>
        <mxCell id="qzTbD7GOH1-h75xhZdL7-75" value="+ getPlayerPath(): List&lt;Tile&gt;" style="text;align=left;verticalAlign=top;spacingLeft=4;spacingRight=4;overflow=hidden;rotatable=0;points=[[0,0.5],[1,0.5]];portConstraint=eastwest;fontColor=#1D3557;" vertex="1" parent="qzTbD7GOH1-h75xhZdL7-15">
          <mxGeometry y="734" width="210" height="26" as="geometry" />
        </mxCell>
        <mxCell id="qzTbD7GOH1-h75xhZdL7-76" value="+ resetPlayerPath(): void" style="text;align=left;verticalAlign=top;spacingLeft=4;spacingRight=4;overflow=hidden;rotatable=0;points=[[0,0.5],[1,0.5]];portConstraint=eastwest;fontColor=#1D3557;" vertex="1" parent="qzTbD7GOH1-h75xhZdL7-15">
          <mxGeometry y="760" width="210" height="26" as="geometry" />
        </mxCell>
        <mxCell id="qzTbD7GOH1-h75xhZdL7-77" value="+ getLife(): String" style="text;align=left;verticalAlign=top;spacingLeft=4;spacingRight=4;overflow=hidden;rotatable=0;points=[[0,0.5],[1,0.5]];portConstraint=eastwest;fontColor=#1D3557;" vertex="1" parent="qzTbD7GOH1-h75xhZdL7-15">
          <mxGeometry y="786" width="210" height="26" as="geometry" />
        </mxCell>
        <mxCell id="qzTbD7GOH1-h75xhZdL7-78" value="+ incrementLife(): void" style="text;align=left;verticalAlign=top;spacingLeft=4;spacingRight=4;overflow=hidden;rotatable=0;points=[[0,0.5],[1,0.5]];portConstraint=eastwest;fontColor=#1D3557;" vertex="1" parent="qzTbD7GOH1-h75xhZdL7-15">
          <mxGeometry y="812" width="210" height="26" as="geometry" />
        </mxCell>
        <mxCell id="qzTbD7GOH1-h75xhZdL7-80" value="+ setSpeed(): void" style="text;align=left;verticalAlign=top;spacingLeft=4;spacingRight=4;overflow=hidden;rotatable=0;points=[[0,0.5],[1,0.5]];portConstraint=eastwest;fontColor=#1D3557;" vertex="1" parent="qzTbD7GOH1-h75xhZdL7-15">
          <mxGeometry y="838" width="210" height="26" as="geometry" />
        </mxCell>
        <mxCell id="qzTbD7GOH1-h75xhZdL7-79" value="+ getSpeed(): int" style="text;align=left;verticalAlign=top;spacingLeft=4;spacingRight=4;overflow=hidden;rotatable=0;points=[[0,0.5],[1,0.5]];portConstraint=eastwest;fontColor=#1D3557;" vertex="1" parent="qzTbD7GOH1-h75xhZdL7-15">
          <mxGeometry y="864" width="210" height="26" as="geometry" />
        </mxCell>
        <mxCell id="qzTbD7GOH1-h75xhZdL7-82" value="+ setDirection(): void" style="text;align=left;verticalAlign=top;spacingLeft=4;spacingRight=4;overflow=hidden;rotatable=0;points=[[0,0.5],[1,0.5]];portConstraint=eastwest;fontColor=#1D3557;" vertex="1" parent="qzTbD7GOH1-h75xhZdL7-15">
          <mxGeometry y="890" width="210" height="26" as="geometry" />
        </mxCell>
        <mxCell id="qzTbD7GOH1-h75xhZdL7-83" value="+ getDirection(): int" style="text;align=left;verticalAlign=top;spacingLeft=4;spacingRight=4;overflow=hidden;rotatable=0;points=[[0,0.5],[1,0.5]];portConstraint=eastwest;fontColor=#1D3557;" vertex="1" parent="qzTbD7GOH1-h75xhZdL7-15">
          <mxGeometry y="916" width="210" height="26" as="geometry" />
        </mxCell>
        <mxCell id="qzTbD7GOH1-h75xhZdL7-84" value="+ setTempDirection(): void" style="text;align=left;verticalAlign=top;spacingLeft=4;spacingRight=4;overflow=hidden;rotatable=0;points=[[0,0.5],[1,0.5]];portConstraint=eastwest;fontColor=#1D3557;" vertex="1" parent="qzTbD7GOH1-h75xhZdL7-15">
          <mxGeometry y="942" width="210" height="26" as="geometry" />
        </mxCell>
        <mxCell id="qzTbD7GOH1-h75xhZdL7-86" value="+ setOnTile(): void" style="text;align=left;verticalAlign=top;spacingLeft=4;spacingRight=4;overflow=hidden;rotatable=0;points=[[0,0.5],[1,0.5]];portConstraint=eastwest;fontColor=#1D3557;" vertex="1" parent="qzTbD7GOH1-h75xhZdL7-15">
          <mxGeometry y="968" width="210" height="26" as="geometry" />
        </mxCell>
        <mxCell id="qzTbD7GOH1-h75xhZdL7-85" value="+ setLife(): void" style="text;align=left;verticalAlign=top;spacingLeft=4;spacingRight=4;overflow=hidden;rotatable=0;points=[[0,0.5],[1,0.5]];portConstraint=eastwest;fontColor=#1D3557;" vertex="1" parent="qzTbD7GOH1-h75xhZdL7-15">
          <mxGeometry y="994" width="210" height="26" as="geometry" />
        </mxCell>
        <mxCell id="qzTbD7GOH1-h75xhZdL7-26" style="edgeStyle=orthogonalEdgeStyle;curved=0;rounded=1;sketch=0;orthogonalLoop=1;jettySize=auto;html=1;fontColor=#1D3557;strokeColor=#457B9D;fillColor=#A8DADC;" edge="1" parent="WIyWlLk6GJQsqaUBKTNV-1" source="qzTbD7GOH1-h75xhZdL7-11">
          <mxGeometry relative="1" as="geometry">
            <mxPoint x="400" y="260" as="targetPoint" />
          </mxGeometry>
        </mxCell>
      </root>
    </mxGraphModel>
  </diagram>
</mxfile>
